<svg xmlns="http://www.w3.org/2000/svg" viewBox="0 0 320.23 84.14"><defs><style>.cls-1{fill:#fff;}</style></defs><title>Asset 1</title><g id="Layer_2" data-name="Layer 2"><g id="Layer_1-2" data-name="Layer 1"><path class="cls-1" d="M45.49,10.59a5.82,5.82,0,0,0-3.1-3.81q1.88-3.11-.79-5.11A7.93,7.93,0,0,0,38.79.37,10.53,10.53,0,0,0,35.59,0a8,8,0,0,0-3.13.83c-1.06.5-2,1-2.95,1.33a91.54,91.54,0,0,0-15.34,19.3Q10.93,26.8,7.44,34c-2.33,4.77-4.12,8.87-5.37,12.27Q-1.38,55.89.92,58a4.58,4.58,0,0,0,3.31,2.49,9.29,9.29,0,0,0,4.18-.33q3.31-.86,7.49-8.35a3.8,3.8,0,0,1,1.87-.43,11.68,11.68,0,0,0,1.3-.25,3.22,3.22,0,0,0,1.15-.51l2.16-1.58a15.81,15.81,0,0,1,3.89-2v.14c-.1.91-.18,2-.26,3.42a16.68,16.68,0,0,1-.46,3.35c-.58,2.16-.44,3.57.43,4.25a8.63,8.63,0,0,0,5.83,1.87,6.89,6.89,0,0,0,5.47-2.31c.1-.52.19-1,.29-1.47s.19-1,.29-1.48l.43-1.51c.33-1.78.63-3.55.9-5.33s.76-4.45,1.48-8,1.46-8,2.23-13.32S44.53,16,45.49,10.59ZM27.06,40a13.81,13.81,0,0,1-2,.14c-.34,0-.24,0,.29-.07l1.73-.14Zm1.29-9.29c-.48,3-.91,6.07-1.29,9.15L21.37,40c.72-1.82,1.58-3.95,2.59-6.37s2-5.08,3-8l2.73-4.1C29.29,24.63,28.83,27.66,28.35,30.68Z"/><path class="cls-1" d="M45.13,58a6.68,6.68,0,0,0,2.66.65,13.41,13.41,0,0,0,8.07-1.73,46.2,46.2,0,0,0,5.61-6A20,20,0,0,0,64.06,45q.36,6,2.88,9.43a6.2,6.2,0,0,0,1.37,1.37,8.81,8.81,0,0,1,1.15.86q3.75,2.1,9.15,1A15.48,15.48,0,0,0,83.22,56a9.17,9.17,0,0,0,3.31-3A49,49,0,0,0,89,48.54,107.18,107.18,0,0,0,95.74,31q1.74-6.12.94-7.85a10.17,10.17,0,0,0-3.6-3.89,11.12,11.12,0,0,0-4.1-.72c-2.26-.28-4,.2-5.12,1.44A4.8,4.8,0,0,0,82.78,22a4.74,4.74,0,0,0-.1,2.05,4.17,4.17,0,0,1,.14,1.08,1.44,1.44,0,0,0,0,.54A19.82,19.82,0,0,1,80.77,31c-.53,1-1.08,1.9-1.66,2.81S78,35.47,77.56,36.12a8,8,0,0,1-1.08,1.33c-.26.24-.37.17-.32-.22.1-.72.24-1.52.43-2.41s.46-2.72.79-5.51c.48-1.77-.21-2.71-2.08-2.8a13,13,0,0,0-2.52.25c-.87.17-1.67.3-2.42.39a17.06,17.06,0,0,0-3.27.94,10.67,10.67,0,0,0-2.92,1.84,24.78,24.78,0,0,0-3.42,3.85,17.2,17.2,0,0,0-2.16-8.21V25.5h-.07a3.61,3.61,0,0,0-1.66-2.23,5.2,5.2,0,0,0-2.7-.72,6.58,6.58,0,0,0-2.84.64,4.35,4.35,0,0,0-2,1.88c-.09.43-.2,1.23-.32,2.41s-.71,4.09-1.76,8.75c-.39,1.58-.78,3.12-1.19,4.6L45,44.65A36.86,36.86,0,0,0,43.26,54a4.72,4.72,0,0,0,.43,2.48A9.09,9.09,0,0,0,45.13,58Z"/><path class="cls-1" d="M94.45,51.85a9.36,9.36,0,0,0,6.33,6.55q3.39,1.51,9.87,1a47.43,47.43,0,0,0,5.76-.79,25.75,25.75,0,0,0,5-1.51,8.17,8.17,0,0,0,3.2-2.24,2.39,2.39,0,0,0,.36-2.73,4.66,4.66,0,0,0-1-1.66,1.33,1.33,0,0,0-.65-.21,1.36,1.36,0,0,1-.65-.22,3.77,3.77,0,0,1-.93-1.51,4.23,4.23,0,0,0-3.06-1.23,12.91,12.91,0,0,0-3.32.62c-1.12.36-2.2.74-3.23,1.15a5.27,5.27,0,0,1-2.85.39c-1.29-.67-2-1.24-2.16-1.72a58.94,58.94,0,0,0,6.55-1.08q1.72-.36,3-.72a17.53,17.53,0,0,0,8.35-5.33c1.25-1.63,2.25-4.42,3-8.35.44-3,.29-5.38-.43-7.06q-2.16-4.76-7.78-4.9a23.61,23.61,0,0,0-10.08,2,20.43,20.43,0,0,0-7.55,5.83,37.1,37.1,0,0,0-5.69,8.64Q92.58,45.37,94.45,51.85Zm14.76-14q2.16-5.12,6-4.32a3.23,3.23,0,0,1-.29,2A9.48,9.48,0,0,1,113.38,38q-2.73,3-5.18,2.73A14.66,14.66,0,0,1,109.21,37.88Z"/><path class="cls-1" d="M126.42,53.07Q125.7,55.53,128,58a11.31,11.31,0,0,0,5.33,3.17,23.77,23.77,0,0,0,7.27.93,27.35,27.35,0,0,0,7.74-1.26A19.22,19.22,0,0,0,155,57.32L156.66,56q4-3,3.6-5a13.05,13.05,0,0,0-.87-11.24q-2.16-3.66-7.7-7.48c.33-.15.5-.27.5-.36q-.21-.72,5.76-1.59,4.76-1.21,5.33-4.46a5.57,5.57,0,0,0-.4-2.95,7.13,7.13,0,0,0-1.65-2.52,5.35,5.35,0,0,0-3.46-1.16,25.93,25.93,0,0,0-5.4.33,37.31,37.31,0,0,0-6,1.47,17.91,17.91,0,0,0-4.54,2.09,26.65,26.65,0,0,0-2.52,2c-2.44,2.25-3.6,4.32-3.45,6.19a6.3,6.3,0,0,0-.43,2.38,8.93,8.93,0,0,0,.36,2.52c.48,1.82,1.17,3,2.08,3.45a9.53,9.53,0,0,0,4.25,3.17c.87.38,1.72.77,2.56,1.15a8.07,8.07,0,0,1,2.12,1.37c-.33,1.73-4.73,2.47-13.17,2.23a1.26,1.26,0,0,0-1.16.61,10.47,10.47,0,0,0-.64,1.3,6,6,0,0,1-.69,1.22,1.3,1.3,0,0,1-1.26.47,2.82,2.82,0,0,0-2.19.29A3,3,0,0,0,126.42,53.07Z"/><path class="cls-1" d="M175.16,59.27a20.56,20.56,0,0,0,3.71.39c1.27,0,2.67,0,4.21,0a29.63,29.63,0,0,0,5.18-.69A12.08,12.08,0,0,0,193.74,56a27,27,0,0,0,8.06-13.25A24.8,24.8,0,0,0,202.3,29a9.42,9.42,0,0,0-5.11-6.62,14,14,0,0,0-4.5-1.51,13.63,13.63,0,0,0-4.35-.15c-1.2.2-2.14.32-2.81.36a5.86,5.86,0,0,0-5.47,3.39,6.38,6.38,0,0,1-.87-.07,4.28,4.28,0,0,0-3.74.5q-3.39,2.31-6.16,8.46a33.37,33.37,0,0,0-3.06,12.2c-.29,4.57.55,7.92,2.52,10.08A11.29,11.29,0,0,0,175.16,59.27Zm3.53-11.92a20.07,20.07,0,0,1,2-3.56c0,.09.34-.11,1-.62a7,7,0,0,0,1.62-1.65,11.29,11.29,0,0,1,1.41-1.69,9.72,9.72,0,0,0,3.38-.51,13.6,13.6,0,0,1-.79,7.06,8.66,8.66,0,0,1-1.84,2.88,6,6,0,0,1-2.55,1.65,11.46,11.46,0,0,1-4.25.15A4.53,4.53,0,0,1,178.69,47.35Z"/><path class="cls-1" d="M202.3,59.45a9.24,9.24,0,0,0,3,.82q8.13,1.08,11.37-4.53a21.18,21.18,0,0,0,1.23-2.81,35.37,35.37,0,0,1,1.36-3.28c.58-1.22,1.08-2.3,1.52-3.24s.84-1.78,1.22-2.55a49.72,49.72,0,0,1,2.95-4.53,30.57,30.57,0,0,0-.5,6.76,7,7,0,0,0,.36,1.58c.14.39.29.77.43,1.16a4.49,4.49,0,0,0,3.38,2,6.41,6.41,0,0,0,2.13-.07,7.42,7.42,0,0,0,2.45-1,6.25,6.25,0,0,0,2.12-2.24c.53-.93,1.2-2.22,2-3.85q.64-.93,3.24-5.72a39.16,39.16,0,0,1,4.1-6.52q-2.08,5.48-3.82,10.51-1,2.88-1.87,5.58c-.57,1.8-1.09,3.56-1.55,5.26A4.08,4.08,0,0,0,239,57.18a7.11,7.11,0,0,0,4.9,1.8,5.21,5.21,0,0,0,4.39-1.87c0-.58.23-.86.54-.83a6.37,6.37,0,0,1,1.08.18,3.3,3.3,0,0,0,1.33,0c.82-.1,1.73-1.75,2.74-5a95,95,0,0,0,3.6-18.94c.38-4.84.14-7.94-.72-9.28a7.11,7.11,0,0,0-1.15-1.44c-.24-.29-.49-.56-.72-.8-1.64-1.87-4.32-2.73-8.07-2.59a17.59,17.59,0,0,0-8.13,4.61,4.91,4.91,0,0,0-3-2q-5-1.22-11.16,4.11a4.74,4.74,0,0,0-2.48-3.06,8.47,8.47,0,0,0-3.78-.9,7.32,7.32,0,0,0-3.53.86,3,3,0,0,0-1.73,2.23c-1.1-.48-1.94.08-2.52,1.66a21,21,0,0,0-.82,2.38c-.27.91-.57,1.8-.9,2.66q-.8,3.81-4.9,17.06-2.09,6.7-2.66,9.58A1.6,1.6,0,0,0,202.3,59.45Zm35.79-17.39c.09-.1.09-.05,0,.14ZM225,38.82a.28.28,0,0,1,0,.09l-.13.12Z"/><path class="cls-1" d="M264.87,58.4q3.39,1.51,9.87,1a47.43,47.43,0,0,0,5.76-.79,25.75,25.75,0,0,0,5-1.51,8.24,8.24,0,0,0,3.2-2.24,2.41,2.41,0,0,0,.36-2.73,4.81,4.81,0,0,0-1-1.66,1.36,1.36,0,0,0-.65-.21,1.36,1.36,0,0,1-.65-.22,3.87,3.87,0,0,1-.94-1.51,4.23,4.23,0,0,0-3.06-1.23,12.84,12.84,0,0,0-3.31.62c-1.13.36-2.21.74-3.24,1.15a5.23,5.23,0,0,1-2.84.39c-1.3-.67-2-1.24-2.16-1.72a58.94,58.94,0,0,0,6.55-1.08c1.15-.24,2.16-.48,3-.72a16.63,16.63,0,0,0,2.67-1,17,17,0,0,0,5.69-4.32c1.24-1.63,2.25-4.42,3-8.35q.64-4.55-.43-7.06-2.16-4.76-7.78-4.9a23.61,23.61,0,0,0-10.08,2,20.54,20.54,0,0,0-7.56,5.83,37.43,37.43,0,0,0-5.69,8.64q-4,8.64-2.08,15.12A9.36,9.36,0,0,0,264.87,58.4Zm8.43-20.52q2.16-5.12,6-4.32a3.09,3.09,0,0,1-.29,2A9.43,9.43,0,0,1,277.47,38q-2.73,3-5.18,2.73A14,14,0,0,1,273.3,37.88Z"/><path class="cls-1" d="M319.91,71.56c.41.07.26-.77.32-.92C319.55,70.83,319.93,71.77,319.91,71.56Z"/><polygon class="cls-1" points="313.14 73.46 313.26 73.12 312.26 73.96 313.14 73.46"/><path class="cls-1" d="M306.81,73.44c.6,1.43,2.3-.23,3.42.28l.19.33.51-1.15C309.56,73.08,307.78,73.84,306.81,73.44Z"/><path class="cls-1" d="M303.44,70.36c.21.55-.73.47.79.17-.08-.06-.1-.1-.15-.14A3.17,3.17,0,0,1,303.44,70.36Z"/><path class="cls-1" d="M304.08,70.39c.67,0-.43-.47,0,0Z"/><path class="cls-1" d="M301.21,69.57c-.9.27-.72.6-.2,1.14l.87-.5C301.7,69.88,300.92,69.81,301.21,69.57Z"/><path class="cls-1" d="M300.17,71.75l.46-.21C300.55,71.4,300.43,71.35,300.17,71.75Z"/><path class="cls-1" d="M301.07,71.38c-.08.42.11,0,.52-.28l-1,.44C300.75,71.77,300.77,72.23,301.07,71.38Z"/><path class="cls-1" d="M302.14,71.31c.49.31,1.13.51.25,1C304.07,72.12,303.82,71.11,302.14,71.31Z"/><path class="cls-1" d="M306.49,74.92l.66.42.57-.48C307.43,75.1,306.45,74.47,306.49,74.92Z"/><path class="cls-1" d="M295.54,70c-.06.3.29.81.36,1.2l.65-.35C296.21,70.61,295.58,70.42,295.54,70Z"/><path class="cls-1" d="M295.9,71.17l-1,.52C295.79,71.75,296,71.5,295.9,71.17Z"/><polygon class="cls-1" points="300.02 73.33 301.61 72.24 299.71 73.35 300.02 73.33"/><polygon class="cls-1" points="291.4 70.29 291.83 69.93 292.38 69.23 291.4 70.29"/><path class="cls-1" d="M287.49,69.76a1.88,1.88,0,0,1,1.88.29c.41-.58-.56-1-.13-1.34A3.8,3.8,0,0,0,287.49,69.76Z"/><path class="cls-1" d="M287.49,69.76a2.61,2.61,0,0,0-.86.66A4.61,4.61,0,0,0,287.49,69.76Z"/><path class="cls-1" d="M292.51,70.67l.38.85.38,0A1.3,1.3,0,0,0,292.51,70.67Z"/><path class="cls-1" d="M292.91,71.55l0,0c-.41,0-.7,0-.82,0Z"/><path class="cls-1" d="M293.27,71.54c0,.08.06.11.1,0Z"/><path class="cls-1" d="M296.86,74.28c.41-.59-.25-1,.61-1.72C296.9,73,295.71,73.55,296.86,74.28Z"/><path class="cls-1" d="M295,72l-1.11.6,1,.2C294.85,72.58,294.67,72.25,295,72Z"/><polygon class="cls-1" points="293.34 72.88 293.84 72.61 293.46 72.54 293.34 72.88"/><path class="cls-1" d="M288.4,71.22a2.55,2.55,0,0,1-1.49.46,6.5,6.5,0,0,0,1.78.26C288.77,71.67,289,71.19,288.4,71.22Z"/><path class="cls-1" d="M290.59,71.46l-.1,0C290.55,71.58,290.6,71.6,290.59,71.46Z"/><path class="cls-1" d="M281.59,71.83a.77.77,0,0,1,0-.15h-.11Z"/><path class="cls-1" d="M288.79,72.1a.83.83,0,0,0,1-.31,4.44,4.44,0,0,1-1.06.15C288.66,72.06,288.65,72.14,288.79,72.1Z"/><path class="cls-1" d="M285.12,70.82a4.52,4.52,0,0,0,.77.47C285.66,71,285.2,70.6,285.12,70.82Z"/><path class="cls-1" d="M290.34,71.27l.07,0C290.26,71.05,290.28,71.14,290.34,71.27Z"/><path class="cls-1" d="M289.75,71.79a2.85,2.85,0,0,0,.74-.29.91.91,0,0,1-.15-.23A2.43,2.43,0,0,0,289.75,71.79Z"/><path class="cls-1" d="M280.54,73c.35.44,2.26,1,1.4,1.73-1.35.41-1.11-.28-1.76-.7.55,1-1.72,1.44-1.43,2.89l1.19-.51c0,.23-.41.59-.08.79a1.34,1.34,0,0,1,2.25-.67c1-.6.34-3.2-.52-4.66C281.56,72.18,281.56,72.5,280.54,73Z"/><path class="cls-1" d="M281.61,71.68l2.06.11-.14.12.42-.1a3.5,3.5,0,0,1-1.45-1.07C281.8,71.13,281.65,71.42,281.61,71.68Z"/><path class="cls-1" d="M285.93,71.34h0c.09.11.12.17,0,.11l0,0a1.78,1.78,0,0,1-.09.33c-.58-.18-.09-.23.09-.33,0,0,0-.08,0-.13h0l-2,.47a5.17,5.17,0,0,0,1.88,0c-.33.86-1.34,1.23-.72,2.16,1.23-.06.86-.72,1.6-1.09-2,.21.57-.48-.87-1a4.21,4.21,0,0,1,1.07-.23,6,6,0,0,1-1-.39Z"/><path class="cls-1" d="M295.8,76.13a.31.31,0,0,1-.06-.2C295.61,76,295.56,76.11,295.8,76.13Z"/><path class="cls-1" d="M295.84,74.9l-.14.11a4.26,4.26,0,0,1-1.63-1.3,6.26,6.26,0,0,0,.92,1.9c.14-.12.26-.46.73-.37.41.26,0,.41,0,.69C296,75.7,296.73,75.31,295.84,74.9Z"/><path class="cls-1" d="M294.07,73.71l-.06-.19S294,73.62,294.07,73.71Z"/><path class="cls-1" d="M289.54,75.1l-.05-.45c.95.18.74-.37.86-.72l-1.66.42Z"/><polygon class="cls-1" points="281.53 70.34 280.57 71.62 281.31 71.25 281.53 70.34"/><polygon class="cls-1" points="279.24 70.56 278.67 71.04 279.16 71.36 279.24 70.56"/><path class="cls-1" d="M157.76,81.18l-.49.22A1.63,1.63,0,0,0,157.76,81.18Z"/><path class="cls-1" d="M161.28,81.23l.09-.39C161.2,81.06,161.14,81.21,161.28,81.23Z"/><path class="cls-1" d="M226.32,71.44c-.71-.73-1.5-1.88-1.41-1l.22.87A1.4,1.4,0,0,1,226.32,71.44Z"/><path class="cls-1" d="M190.14,76.63l.2.26c.18-.3.34-.57.48-.83C190.62,76.24,190.38,76.43,190.14,76.63Z"/><path class="cls-1" d="M188.7,79.66a3.26,3.26,0,0,0,.94.56Z"/><path class="cls-1" d="M138.52,82.1,138,83C138.84,83,138.45,82.53,138.52,82.1Z"/><path class="cls-1" d="M257.12,71.68a3.84,3.84,0,0,0-1.52-.53C256.34,71.65,256.93,72.4,257.12,71.68Z"/><path class="cls-1" d="M159.14,72c-.29.16-.42.33-.41.53C159,72.35,159.21,72.18,159.14,72Z"/><path class="cls-1" d="M255.6,71.15a1.26,1.26,0,0,0-1.77,0,3,3,0,0,0,.33.21A3.34,3.34,0,0,1,255.6,71.15Z"/><path class="cls-1" d="M68.77,81.38a1.53,1.53,0,0,1-.16-.11C68.6,81.39,68.67,81.4,68.77,81.38Z"/><path class="cls-1" d="M48.45,72.62a4.79,4.79,0,0,1,.83-.06A1.38,1.38,0,0,0,48.45,72.62Z"/><path class="cls-1" d="M270.5,71c.46-.06.08-.1,0,0Z"/><path class="cls-1" d="M272.54,74.83a.79.79,0,0,1,.18-.42A.59.59,0,0,0,272.54,74.83Z"/><path class="cls-1" d="M249.29,76.56h0C249.38,76.72,249.36,76.69,249.29,76.56Z"/><path class="cls-1" d="M271.19,71.37a2.56,2.56,0,0,0-.58-.26A2.36,2.36,0,0,0,271.19,71.37Z"/><path class="cls-1" d="M271.1,71l.4.09C271.55,70.9,271.5,70.81,271.1,71Z"/><path class="cls-1" d="M270.5,71l-.63,0a2.59,2.59,0,0,1,.74.09C270.52,71.06,270.48,71,270.5,71Z"/><path class="cls-1" d="M106.14,79.06a.76.76,0,0,1-.09-.09C105.59,79.33,105.79,79.28,106.14,79.06Z"/><path class="cls-1" d="M214.45,80.46s0,0,.05,0l-.07,0Z"/><path class="cls-1" d="M212.81,81.1c.7-1.08,1.09-.95,1.62-.72l-.54-2.5Z"/><path class="cls-1" d="M277,70.79c.78,1.77-3.26-.07-2,1.78-.93-1.64-1.6-.7-2.82-2.1,0,.41.43.77-.63.58a2.16,2.16,0,0,1-.24.35l-.07,0,.06,0c-.05.06-.05.07,0,0a1.4,1.4,0,0,1,.54.61c-.53.93-2.22.9-2.8,1.38-.63-.19.27-.46-.08-.89l-.86.71c-.08-.89-1.68-1.49-.19-2l-1.34,0a2.69,2.69,0,0,0-2.55-.33c-.64-.19-1.6,1-1.05.29l-2.11.56,0-.23c-2.08-.11-4.28,1.49-6.65-.13a4.39,4.39,0,0,1-2.6.25l-.23-.78c-.89.27-2.69-.78-3.08,0-1-2.09-4.36-.45-5.94-.82l-.06,1a10.08,10.08,0,0,0-3.48.64l.08.89c-1.17.74-3-.63-4.84-.54.13-.34.6-.25.93-.05-2.2-2-4.64,1.48-6.64,0a1,1,0,0,1-1.21,0,.21.21,0,0,0,.13,0H227c-.22-.15-.44-.33-.69-.48a2.6,2.6,0,0,0,.58.49,5,5,0,0,0-1.53.35l-.24-1-.14,0c-.56-.35-.45.46-.15,1.18a2.72,2.72,0,0,0-.75.59c-.46-1.56-1.5.52-2.12-1.14-.38.81-2.86.61-3.17,2.31,0-.22-.18-.33.12-.34-.63-.19-1.27-.39-1.84.09l-.27-1.22-1.38,1.64c-.85-.74-1.2-1.18-.36-2.12-2,1.45-1.64.55-3.36,2l.08-.79c-.61,0-1.59,1.09-2,.44-1.38-1.51-6.8-.21-10.33-1.61.68,2.33-1.64-1-1.78.76-.21-.55-.7-.86-.13-1.34-1.8.54-2.7-.87-4,.65-.2-.55.39-.81.2-1.13-.14.11-.57.47-.75.15s.26-.47.54-.71c-1.84.1-2,1.79-2.16,3.39-.93-.76-1.39-.65-2.07.4-.32-.52-.86-1.07.28-1.26-.64-.07-3.93-.76-4,.52-.2-.33-.9-.1-1.07,0a15,15,0,0,0-3-.07l.4.21c-.56,1.54-1.18.34-2.32.53l0-.16c-2.62-1.11-1.13.53-3.72-.74l.15,1c-.25,2.06-2.29-1.22-3.79-.43l.54.55c-.82.71-2.29-2.8-3.11-3.06-.18-.18.28-.29.53-.42-2.15-1.22-.28,1.25-1.88,1.55-.3-.68.38-1.73-.7-1.85-.54-.55-3.13,2.2-4.61.9.33.52.65,1-.1,1.43-1.14.19-3.08-2-4.12-.33a.57.57,0,0,1-.2-.4c-.88.42-2.84.7-3.37,1.59-.8-3.31-5.43,1.62-5.41-1.44l-2.68.16.07-.31a2.81,2.81,0,0,0-2.93,1.26c-.4-.2-.11-.49-.07-.65-2.51-.61-2.76-.48-4.86,1l-.22-1c-.57.57-3.63-1.56-6.09-.4a.67.67,0,0,1,.27-.45c-2.77,1.17-6.63-2.75-7.64.86l-1.83.89c2.36.28-.35,1.57.62,2.17-.93.21-2.4-1.09-1.26-1.27l.18.18c.42-1.89-2.94-.67-2.87-2-4.65.09-9.19-1-13.54-1l.5,1.46-1.52-.08c-.4-.34-.54-1.15.55-1.09-.57-.83-1.82.7-1.85,1-2.12-.6.83-1.71.18-1.75l-.89.11.2.18c-.71.59-.78,1.23-2.08,1.15-.83-.29-.42-.9-.75-1,0-.11-.11-.16-.5,0L99,72l.76,1.15c-.84.57-1.8-.06-.91,1.25-1.3-2-7.14-.72-7.94-1.35a5.34,5.34,0,0,1-3.81.73c.36.24.57,1.54-.68,1.38.46-2.68-2.3-1.17-3.31-3.09.91,1.27-3.56.31-2.14,2.13-1-.22-.06-1-.86-1.64-2.49,1-5.48-.67-8.56-.32,0,.35.47.89-.19,1.41l-1.63-1.76c-.61.18-.56,2-1.67.81.16.3.39.74,0,.86-6-1.72-12.32,1.4-18.44-1.82.83.68.27.75-.36.78.41.16,0,.86.07,1.34l-2.56-1.32c-.47,1.32-2.75.09-3,1.35l.82-.23c-1.08,1.5,1.51,3.32,1.35,5.24,1.21-1.7,3.18,2.51,5.17.08.44.39-.38.62-.14,1.06.5-.82,1.11-1,2.23-.62l-.12.2c3.16-.2,4.51.61,8.06,1.15l-.26-1a2.53,2.53,0,0,1,1.28.66c.87-1.43-2.14-.08-1.35-1.66,1,1.93,5.38,0,6.07,2.22,1.17,0-.35-1.1.83-1.08l.31.59.29-.77a1.51,1.51,0,0,1,1.19,1.37c-.19-.06-.53.14-.73.19,1,.7,2.81-.24,3.15,0L70.8,81c3.2-.55,7.11.22,10.2-1l-.23-.45c2.36-.82,1.89.49,4.49.11l-.1.11a2.64,2.64,0,0,1,1.92-.62c-.65.52,1.24,1,.38,1.59,2.56-.88,1.26-.69,3-2.35l.39.74c.57-.67.62-1,1.92-1.22-1.07.64.82,1.13-.37,2,2.72,1.62,4-1.64,5.29.74C98.9,78.58,95.3,79.5,96,79.06c-.58-.67,1-1.54,1.89-1.33.87,0,1.48,2.63,3.66,2.59-.22,0-.23.14-.45.13.82.53,1.6-.71,2.61.15.56-1.25,1.3.07,1.46-1.52l-2,.37c1.13-.41,2.2-2.27,4.07-1.37a3.28,3.28,0,0,1-1.09,1c.55.46,1.06-.31,1.62.16-.16,1.59-2.43.35-3.65,1.56.59.67,2.3-1.15,1.69.57.88-2.19,2.16.27,3.64-1.39l-.1.94c.23-.14.72-.59,1.15-.57l-.78,1.23c1.2-1,2.31.92,3.46.35-2.41,0-.54-1.15-1.56-1.84,3-1.27,1.7,2.49,5,2-.45.13-1.69-.57-1-1a4.1,4.1,0,0,1,1.86,1.06c2.2-.2-.34-1,.6-1.56.75,1.15,1.08-.47,2-.84v1c2.51.62.66-2,2.92-1.26l-1,1.34,1.17-.35-.24,1.1c1.28-.82,1.68-.6,2.94-.3a1.33,1.33,0,0,1,1.27-1.78c.76.58-.42.92,1.15.78-.36.61-.74,1.36-1.43.47-.07.32-.35.61-.42.92.81.66,2.05.15,2.62.14a1.21,1.21,0,0,1-.62-.22l2.28-1.34c.36.36.08.65-.2.94.46-.11.78-.55,1.46-.63-.18.78-.14,1.59-1.1,2l2.18-.87c.14.34,1.11.94.83,1.23,1.21.46,3-1.53,4.56-.92a1,1,0,0,1,.59-.41c1.5.18,2.83,1.14,4.61.07l1,1.4c1.39-.32-1.37-1.77,1-2.3,1.65-.45.62,1.2,1.19,1.59.82-.71,2.24-2.15,3.75-1-.5.27-.89.06-1.35.17l1.15.78c-1.39,1.28-2.4.84-1.32,1.93.17-2.71,4.48-.28,4.64-3l.75.57c-.21,0-.25.14-.46.11,1.47,1.3,1.09-2,3-1.58.67.21,1.13.6.68.93l1.47-.68c.43.06.33.53-.1.48l2.25-.22v.08a10,10,0,0,1,1.4-1.37c.57.39-.29.29-.14.63l1.25-.66c.5.71-.53,1.39-1.39,1.29,1.16,2.71,1-.68,3.55.9l-1.18.34c.76,1.55,1.68,1,3,2-.32-.5-2.67-2.42-1.31-3.1a1.36,1.36,0,0,0,1.61-.24c0,1,.72.73,1.61.67l-.06,1.28c1-.37.89-1,1.46-1.6,1.07.13,1.29,1.12,1.55,2,1.72.2-1.19-1.59.85-1.83,1.43.48,2.43,0,4.14-.8,1,.44-.17.78.19,1.14l.89-1c.21,0,.14.34.11.5.75-.4.06-1.28,1.24-1.63.31-1.4,2.41,2.06,3.87.46.36.37-.18.79-.07,1.28a10.8,10.8,0,0,0,3.36-2.17l1.39.84c-1-1,.29-2.1,1.44-3a12.65,12.65,0,0,0-.89-1.07l1.84-.68c.22.21,0,.64-.27,1.18a3.6,3.6,0,0,0,.34-.31c.65.47.31,1.21-.15,1.93-.23-.25-.45-.52-.67-.79a4.26,4.26,0,0,0-.78,2.39,1.21,1.21,0,0,1,.6-.35.71.71,0,0,0-.14.53c.07.13.26-.15.56-.48l.41,1.43.11-.57,2.39.89c1.72-1.43,3.21-3.54,5.94-4.13-.68,1-.15,1.71-.18,2.94-.75-1.31-2.11.56-3.53.3.74.13.58.72.39.93l2.52-1.19c-.06,1,.53.76,1.19,1.18-.5-2,1.88-1.34,2.9-2,.07.67-.18,1.36-1.43,1.19,1.38,1.51,1.78-2.35,3.14-1.07-.31,0-.47-.08-.59.26.71-.6,2.45-.13,2,.46h-.3c2,.24,6.17,0,6.47-1.68a16.44,16.44,0,0,1-.39,2.39l3.62-5.72c-.32,1.46.9,4.94-.78,5.76a2.15,2.15,0,0,0,2.1-.06c-.33-.21-.82-2.11-.37-2.25,1.23,1.63.85.87,2.37,2.26-.49-.31.06-2.6.84-2.53-.12.34.06,2.26-.22,2.5l1.94-2.25c-.49.4-.09,1.91.35,2.54-.2-.44,1.68,0,2.19-.18l-.82-.52c2.19.34,2.16-3.16,4.34-3-.27.47-.65,2.86.45,3.15.51-1.16,2.25-5.55,4.17-6.43l.37.66,1.47-.75a40.57,40.57,0,0,1-4.9,6.8c.82.52.23.77,1.45.71.44.62-.66.94-1,1l2.86.39c-.12-1.34,2.19-1.34,2.08-2.46L231,81.31c-.12-1.34,1.8-3.82,3.83-3.58.51.53-.39,2.39-.35,2.84.27-.46,1.92-.88,2.11-.55l-.86.71c1.13.51,1.84-1.78,3.2-.49.46.08,1.39,1.73,1.47.93-.76-1.53-.91-6.28-.4-7.43A15.11,15.11,0,0,1,243,76c.77,1.21-1.16,2.87-.5,3.9a1.82,1.82,0,0,1,.63-1c.49.31-.2,1.14.87,1,.17-1.36,2.17.11.5-1.15,1-.39,1.11.28,2.34.22-.4-.88,1.1-3,2.14-3.39a1.77,1.77,0,0,0,.29,1c2.14.12,3.29.74,5.28.75.19.33,1.15.73.74,1.32.29-.25.55-.71,1.17-.74,1.19,1.18-1.38.18-.47,1.6.08-.79,1.59-1.09,2.47-1.59-.27-1.22-2-.23-2.9.26,0-1.69,1.52-3.45,3.61-4.23,1.65-.42.72,1.09,1,.85,3.12.29,2.66-3,5.24-1.73,1,1.07.05,2.14.27,2.91-1.35.41-2.07-.68-3-.64l1.12.51a1.82,1.82,0,0,1-1.82.32c.86,1,5.26.18,7.66,1.07.43-.36,1.17-.73.82-1.16l-.76.15c-.7-.87,1.43-1.2.47-1.6,1-.61,2.16-1.57,3.59-1.08l.27,1.22c0-.35-.93-.73-1.34-.35.6-.55,2.2,1.66,2.86,0l-1-.85c1-.61,2.29-1.92,3.56-1.53C277.57,70.86,277.85,72.21,277,70.79ZM101.27,72.56l.3.25C100.89,73.09,101.08,72.84,101.27,72.56Zm64,8.5c.38-1.1.68-.58,1.24-.26C166.19,81,165.53,81.63,165.28,81.06Zm26.33-2.78a1.3,1.3,0,0,1,1.06.2C192.42,78.8,192,78.64,191.61,78.28Zm73.86-6.47c-.75-.38-.48-.23,0,0Z"/><path class="cls-1" d="M189.7,79.8a1.34,1.34,0,0,1-.14-.52C189.43,79.44,189.43,79.63,189.7,79.8Z"/><path class="cls-1" d="M138.63,81.93h0a.64.64,0,0,0-.06.18Z"/><path class="cls-1" d="M243.13,80.36a1.32,1.32,0,0,1-.61-.5C242.5,80.1,242.65,80.3,243.13,80.36Z"/><path class="cls-1" d="M275.23,70.54l-1,.25a1.16,1.16,0,0,1,.89.32C275.11,70.88,274.92,70.56,275.23,70.54Z"/><path class="cls-1" d="M283.81,76.51c.14-.12.3,0,.45-.13l0-.45C283.6,76,283.17,76.32,283.81,76.51Z"/><path class="cls-1" d="M276.14,73.75c.08.81.7.53,1.39.38a.24.24,0,0,1-.12,0C277.61,73,276.88,73.37,276.14,73.75Z"/><path class="cls-1" d="M277.69,74.11a1.73,1.73,0,0,1,.64,0C278.41,73.63,278.07,74,277.69,74.11Z"/><path class="cls-1" d="M269,71.64c.33.21.21-1,.4-.7C269.76,69.9,267.21,72.19,269,71.64Z"/><polygon class="cls-1" points="276.06 76.23 276.7 76.42 276.45 75.42 276.06 76.23"/><path class="cls-1" d="M271.23,75.69l1.11.27c0-.16.12-.26.3-.34C272,75.59,271.21,75.39,271.23,75.69Z"/><path class="cls-1" d="M273.53,75.46a2.89,2.89,0,0,0-.89.16A1.36,1.36,0,0,0,273.53,75.46Z"/><polygon class="cls-1" points="274.08 76.44 275.19 76.72 274.86 76.51 274.08 76.44"/><path class="cls-1" d="M259.34,75.49l-1.21.29c-.13.34.2.55.65.42C259.07,76,259.52,75.82,259.34,75.49Z"/><path class="cls-1" d="M262.46,77.47l0,1.25.57-.48C262.66,78,262.64,77.81,262.46,77.47Z"/><path class="cls-1" d="M259.24,79.44c.13-.34,1.34-.63.23-.91C259.35,78.87,257.71,79.52,259.24,79.44Z"/><polygon class="cls-1" points="241.26 76.96 241.57 76.94 241.53 74.9 241.26 76.96"/><path class="cls-1" d="M226.14,80.27c-.86.51-1.31.22-.92,1.56,1.44.49.34-1.26,1.64-.65C227.19,80.7,225.8,80.68,226.14,80.27Z"/><path class="cls-1" d="M226.14,80.27a3.33,3.33,0,0,0,.45-.31A1.5,1.5,0,0,0,226.14,80.27Z"/><polygon class="cls-1" points="44.75 71.79 45.07 71.53 44.15 71.1 44.75 71.79"/><path class="cls-1" d="M42.54,72.92c.21-.06.61-.17.77.12l-.22-1.3Z"/><path class="cls-1" d="M168.36,82.69l.72.73.07-.31C169,82.77,168.79,82.74,168.36,82.69Z"/><polygon class="cls-1" points="156.6 82.45 156.81 82.47 156.41 81.3 156.6 82.45"/><path class="cls-1" d="M147.48,83.78a1.51,1.51,0,0,0-.3,0A1,1,0,0,0,147.48,83.78Z"/><path class="cls-1" d="M146.12,83.94a4.44,4.44,0,0,0,1.06-.15C146.43,83.69,146,82.65,146.12,83.94Z"/></g></g></svg>